<?xml version="1.0" encoding="UTF-8" standalone="no"?>
<!-- Created with Inkscape (http://www.inkscape.org/) -->

<svg
   xmlns:dc="http://purl.org/dc/elements/1.1/"
   xmlns:cc="http://creativecommons.org/ns#"
   xmlns:rdf="http://www.w3.org/1999/02/22-rdf-syntax-ns#"
   xmlns:svg="http://www.w3.org/2000/svg"
   xmlns="http://www.w3.org/2000/svg"
   xmlns:sodipodi="http://sodipodi.sourceforge.net/DTD/sodipodi-0.dtd"
   xmlns:inkscape="http://www.inkscape.org/namespaces/inkscape"
   version="1.1"
   width="146.6875"
   height="91.412498"
   id="svg2"
   xml:space="preserve"
   inkscape:version="0.91 r13725"
   sodipodi:docname="logo.svg"
   inkscape:export-filename="C:\Users\dieter\Documents\tao-logo\svg\TAO_every-only.png"
   inkscape:export-xdpi="300"
   inkscape:export-ydpi="300"><sodipodi:namedview
     pagecolor="#ffffff"
     bordercolor="#666666"
     borderopacity="1"
     objecttolerance="10"
     gridtolerance="10"
     guidetolerance="10"
     inkscape:pageopacity="0"
     inkscape:pageshadow="2"
     inkscape:window-width="1920"
     inkscape:window-height="1013"
     id="namedview45"
     showgrid="false"
     inkscape:zoom="2.3546656"
     inkscape:cx="137.45801"
     inkscape:cy="-4.6883161"
     inkscape:window-x="1920"
     inkscape:window-y="24"
     inkscape:window-maximized="1"
     inkscape:current-layer="g12" /><metadata
     id="metadata8"><rdf:RDF><cc:Work
         rdf:about=""><dc:format>image/svg+xml</dc:format><dc:type
           rdf:resource="http://purl.org/dc/dcmitype/StillImage" /><dc:title /></cc:Work></rdf:RDF></metadata><defs
     id="defs6" /><g
     transform="matrix(1.25,0,0,-1.25,0,91.4125)"
     id="g10"><g
       transform="scale(0.1,0.1)"
       id="g12"><path
         d="m 541.176,290.344 c 8.398,-23.106 -3.496,-48.664 -26.629,-57.063 -23.078,-8.406 -48.664,3.504 -57.063,26.629 -8.418,23.11 3.469,48.645 26.582,57.035 23.145,8.426 48.692,-3.507 57.11,-26.601"
         inkscape:connector-curvature="0"
         id="path14"
         style="fill:#266d9c;fill-opacity:1;fill-rule:nonzero;stroke:none"
         inkscape:export-filename="C:\Users\dieter\Documents\tao-logo\svg\patttern-only.png"
         inkscape:export-xdpi="300"
         inkscape:export-ydpi="300" /><path
         d="m 549.312,470.996 c -10.441,-22.324 -36.925,-31.973 -59.21,-21.551 -22.313,10.352 -31.961,36.903 -21.543,59.18 10.382,22.293 36.875,31.941 59.171,21.551 22.293,-10.43 31.942,-36.903 21.582,-59.18"
         inkscape:connector-curvature="0"
         id="path16"
         style="fill:#266d9c;fill-opacity:1;fill-rule:nonzero;stroke:none"
         inkscape:export-filename="C:\Users\dieter\Documents\tao-logo\svg\patttern-only.png"
         inkscape:export-xdpi="300"
         inkscape:export-ydpi="300" /><path
         d="m 682.562,593.086 c -23.105,-8.367 -48.66,3.527 -57.097,26.652 -8.41,23.094 3.523,48.633 26.648,57.071 23.086,8.406 48.672,-3.508 57.051,-26.602 8.438,-23.137 -3.484,-48.684 -26.602,-57.121"
         inkscape:connector-curvature="0"
         id="path18"
         style="fill:#266d9c;fill-opacity:1;fill-rule:nonzero;stroke:none"
         inkscape:export-filename="C:\Users\dieter\Documents\tao-logo\svg\patttern-only.png"
         inkscape:export-xdpi="300"
         inkscape:export-ydpi="300" /><path
         d="m 863.18,585.227 c -22.297,10.39 -31.953,36.902 -21.563,59.199 10.41,22.293 36.895,31.922 59.207,21.531 22.285,-10.41 31.926,-36.895 21.563,-59.172 -10.418,-22.293 -36.914,-31.969 -59.207,-21.558"
         inkscape:connector-curvature="0"
         id="path20"
         style="fill:#266d9c;fill-opacity:1;fill-rule:nonzero;stroke:none"
         inkscape:export-filename="C:\Users\dieter\Documents\tao-logo\svg\patttern-only.png"
         inkscape:export-xdpi="300"
         inkscape:export-ydpi="300" /><path
         d="m 985.297,451.895 c -8.406,23.164 3.496,48.691 26.633,57.128 23.12,8.399 48.67,-3.476 57.06,-26.648 8.44,-23.117 -3.48,-48.664 -26.58,-57.043 -23.13,-8.406 -48.676,3.469 -57.113,26.563"
         inkscape:connector-curvature="0"
         id="path22"
         style="fill:#266d9c;fill-opacity:1;fill-rule:nonzero;stroke:none"
         inkscape:export-filename="C:\Users\dieter\Documents\tao-logo\svg\patttern-only.png"
         inkscape:export-xdpi="300"
         inkscape:export-ydpi="300" /><path
         d="m 663.512,157.109 c 22.332,-10.437 31.961,-36.933 21.57,-59.2379 C 674.684,75.5977 648.168,65.918 625.875,76.3789 603.559,86.7695 593.949,113.242 604.34,135.547 c 10.383,22.277 36.906,31.953 59.172,21.562"
         inkscape:connector-curvature="0"
         id="path24"
         style="fill:#266d9c;fill-opacity:1;fill-rule:nonzero;stroke:none"
         inkscape:export-filename="C:\Users\dieter\Documents\tao-logo\svg\patttern-only.png"
         inkscape:export-xdpi="300"
         inkscape:export-ydpi="300" /><path
         d="m 844.125,149.18 c 23.125,8.437 48.691,-3.477 57.129,-26.621 8.43,-23.1059 -3.555,-48.6606 -26.668,-57.0707 -23.106,-8.3985 -48.664,3.4765 -57.043,26.5898 -8.438,23.1489 3.477,48.7149 26.582,57.1019"
         inkscape:connector-curvature="0"
         id="path26"
         style="fill:#266d9c;fill-opacity:1;fill-rule:nonzero;stroke:none"
         inkscape:export-filename="C:\Users\dieter\Documents\tao-logo\svg\patttern-only.png"
         inkscape:export-xdpi="300"
         inkscape:export-ydpi="300" /><path
         d="m 977.406,271.328 c 10.403,22.317 36.894,31.945 59.234,21.555 22.24,-10.391 31.91,-36.887 21.5,-59.192 -10.39,-22.324 -36.89,-31.953 -59.152,-21.562 -22.351,10.391 -31.972,36.926 -21.582,59.199"
         inkscape:connector-curvature="0"
         id="path28"
         style="fill:#266d9c;fill-opacity:1;fill-rule:nonzero;stroke:none"
         inkscape:export-filename="C:\Users\dieter\Documents\tao-logo\svg\patttern-only.png"
         inkscape:export-xdpi="300"
         inkscape:export-ydpi="300" /><path
         d="m 621.293,319.414 c 5.391,-14.754 -2.227,-31.133 -17.039,-36.512 -14.777,-5.363 -31.133,2.246 -36.524,17.032 -5.382,14.804 2.254,31.179 17.032,36.55 14.773,5.391 31.16,-2.234 36.531,-17.07"
         inkscape:connector-curvature="0"
         id="path30"
         style="fill:#266d9c;fill-opacity:1;fill-rule:nonzero;stroke:none"
         inkscape:export-filename="C:\Users\dieter\Documents\tao-logo\svg\patttern-only.png"
         inkscape:export-xdpi="300"
         inkscape:export-ydpi="300" /><path
         d="m 626.352,435.059 c -6.661,-14.278 -23.633,-20.469 -37.891,-13.817 -14.258,6.668 -20.449,23.621 -13.789,37.899 6.68,14.25 23.586,20.41 37.871,13.761 14.277,-6.652 20.469,-23.593 13.809,-37.843"
         inkscape:connector-curvature="0"
         id="path32"
         style="fill:#266d9c;fill-opacity:1;fill-rule:nonzero;stroke:none"
         inkscape:export-filename="C:\Users\dieter\Documents\tao-logo\svg\patttern-only.png"
         inkscape:export-xdpi="300"
         inkscape:export-ydpi="300" /><path
         d="m 711.676,513.234 c -14.805,-5.402 -31.153,2.215 -36.574,16.993 -5.379,14.824 2.238,31.171 17.05,36.55 14.805,5.383 31.164,-2.246 36.536,-17.031 5.378,-14.824 -2.219,-31.141 -17.012,-36.512"
         inkscape:connector-curvature="0"
         id="path34"
         style="fill:#266d9c;fill-opacity:1;fill-rule:nonzero;stroke:none"
         inkscape:export-filename="C:\Users\dieter\Documents\tao-logo\svg\patttern-only.png"
         inkscape:export-xdpi="300"
         inkscape:export-ydpi="300" /><path
         d="m 827.242,508.145 c -14.277,6.652 -20.449,23.605 -13.781,37.921 6.652,14.219 23.594,20.438 37.863,13.719 14.278,-6.59 20.457,-23.594 13.789,-37.84 -6.66,-14.277 -23.613,-20.429 -37.871,-13.8"
         inkscape:connector-curvature="0"
         id="path36"
         style="fill:#266d9c;fill-opacity:1;fill-rule:nonzero;stroke:none"
         inkscape:export-filename="C:\Users\dieter\Documents\tao-logo\svg\patttern-only.png"
         inkscape:export-xdpi="300"
         inkscape:export-ydpi="300" /><path
         d="m 905.434,422.852 c -5.418,14.804 2.187,31.183 16.992,36.554 14.797,5.391 31.144,-2.238 36.535,-17.07 5.41,-14.785 -2.219,-31.133 -16.992,-36.516 -14.836,-5.379 -31.164,2.246 -36.535,17.032"
         inkscape:connector-curvature="0"
         id="path38"
         style="fill:#266d9c;fill-opacity:1;fill-rule:nonzero;stroke:none"
         inkscape:export-filename="C:\Users\dieter\Documents\tao-logo\svg\patttern-only.png"
         inkscape:export-xdpi="300"
         inkscape:export-ydpi="300" /><path
         d="m 699.469,234.141 c 14.285,-6.649 20.449,-23.606 13.777,-37.911 -6.641,-14.246 -23.594,-20.418 -37.879,-13.75 -14.269,6.661 -20.441,23.594 -13.762,37.852 6.622,14.297 23.575,20.488 37.864,13.809"
         inkscape:connector-curvature="0"
         id="path40"
         style="fill:#266d9c;fill-opacity:1;fill-rule:nonzero;stroke:none"
         inkscape:export-filename="C:\Users\dieter\Documents\tao-logo\svg\patttern-only.png"
         inkscape:export-xdpi="300"
         inkscape:export-ydpi="300" /><path
         d="m 815.043,229.102 c 14.824,5.363 31.152,-2.266 36.562,-17.059 5.403,-14.766 -2.234,-31.145 -17.07,-36.535 -14.765,-5.36 -31.133,2.258 -36.492,17.051 -5.41,14.796 2.215,31.144 17,36.543"
         inkscape:connector-curvature="0"
         id="path42"
         style="fill:#266d9c;fill-opacity:1;fill-rule:nonzero;stroke:none"
         inkscape:export-filename="C:\Users\dieter\Documents\tao-logo\svg\patttern-only.png"
         inkscape:export-xdpi="300"
         inkscape:export-ydpi="300" /><path
         d="m 900.348,307.277 c 6.648,14.278 23.601,20.426 37.898,13.778 14.25,-6.68 20.422,-23.582 13.77,-37.871 -6.661,-14.305 -23.614,-20.469 -37.871,-13.817 -14.266,6.649 -20.457,23.602 -13.797,37.91"
         inkscape:connector-curvature="0"
         id="path44"
         style="fill:#266d9c;fill-opacity:1;fill-rule:nonzero;stroke:none"
         inkscape:export-filename="C:\Users\dieter\Documents\tao-logo\svg\patttern-only.png"
         inkscape:export-xdpi="300"
         inkscape:export-ydpi="300" /><path
         d="m 672.445,338.066 c 3.43,-9.5 -1.453,-19.968 -10.906,-23.398 -9.484,-3.445 -19.941,1.406 -23.391,10.879 -3.457,9.473 1.446,19.98 10.899,23.437 9.492,3.418 19.941,-1.464 23.398,-10.918"
         inkscape:connector-curvature="0"
         id="path46"
         style="fill:#266d9c;fill-opacity:1;fill-rule:nonzero;stroke:none"
         inkscape:export-filename="C:\Users\dieter\Documents\tao-logo\svg\patttern-only.png"
         inkscape:export-xdpi="300"
         inkscape:export-ydpi="300" /><path
         d="m 675.688,412.07 c -4.258,-9.168 -15.137,-13.105 -24.297,-8.886 -9.102,4.308 -13.047,15.128 -8.77,24.277 4.27,9.141 15.098,13.059 24.25,8.809 9.121,-4.247 13.074,-15.118 8.817,-24.2"
         inkscape:connector-curvature="0"
         id="path48"
         style="fill:#266d9c;fill-opacity:1;fill-rule:nonzero;stroke:none"
         inkscape:export-filename="C:\Users\dieter\Documents\tao-logo\svg\patttern-only.png"
         inkscape:export-xdpi="300"
         inkscape:export-ydpi="300" /><path
         d="m 730.23,462.062 c -9.425,-3.429 -19.902,1.465 -23.371,10.926 -3.418,9.473 1.457,19.922 10.938,23.371 9.445,3.418 19.941,-1.449 23.371,-10.918 3.445,-9.453 -1.438,-19.914 -10.938,-23.379"
         inkscape:connector-curvature="0"
         id="path50"
         style="fill:#266d9c;fill-opacity:1;fill-rule:nonzero;stroke:none"
         inkscape:export-filename="C:\Users\dieter\Documents\tao-logo\svg\patttern-only.png"
         inkscape:export-xdpi="300"
         inkscape:export-ydpi="300" /><path
         d="m 804.242,458.801 c -9.14,4.285 -13.086,15.137 -8.828,24.297 4.27,9.109 15.117,13.054 24.238,8.836 9.153,-4.278 13.067,-15.118 8.821,-24.278 -4.231,-9.129 -15.09,-13.094 -24.231,-8.855"
         inkscape:connector-curvature="0"
         id="path52"
         style="fill:#266d9c;fill-opacity:1;fill-rule:nonzero;stroke:none"
         inkscape:export-filename="C:\Users\dieter\Documents\tao-logo\svg\patttern-only.png"
         inkscape:export-xdpi="300"
         inkscape:export-ydpi="300" /><path
         d="m 854.273,404.23 c -3.468,9.473 1.407,19.942 10.899,23.418 9.461,3.407 19.91,-1.457 23.379,-10.949 3.465,-9.472 -1.446,-19.922 -10.899,-23.371 -9.464,-3.465 -19.933,1.457 -23.379,10.902"
         inkscape:connector-curvature="0"
         id="path54"
         style="fill:#266d9c;fill-opacity:1;fill-rule:nonzero;stroke:none"
         inkscape:export-filename="C:\Users\dieter\Documents\tao-logo\svg\patttern-only.png"
         inkscape:export-xdpi="300"
         inkscape:export-ydpi="300" /><path
         d="m 722.477,283.449 c 9.14,-4.269 13.074,-15.109 8.816,-24.269 -4.258,-9.09 -15.117,-13.067 -24.246,-8.797 -9.152,4.265 -13.078,15.137 -8.82,24.258 4.238,9.121 15.097,13.093 24.25,8.808"
         inkscape:connector-curvature="0"
         id="path56"
         style="fill:#266d9c;fill-opacity:1;fill-rule:nonzero;stroke:none"
         inkscape:export-filename="C:\Users\dieter\Documents\tao-logo\svg\patttern-only.png"
         inkscape:export-xdpi="300"
         inkscape:export-ydpi="300" /><path
         d="m 796.449,280.188 c 9.453,3.484 19.922,-1.379 23.352,-10.84 3.496,-9.473 -1.418,-19.953 -10.899,-23.41 -9.425,-3.446 -19.902,1.445 -23.34,10.898 -3.468,9.492 1.426,19.961 10.887,23.352"
         inkscape:connector-curvature="0"
         id="path58"
         style="fill:#266d9c;fill-opacity:1;fill-rule:nonzero;stroke:none"
         inkscape:export-filename="C:\Users\dieter\Documents\tao-logo\svg\patttern-only.png"
         inkscape:export-xdpi="300"
         inkscape:export-ydpi="300" /><path
         d="m 851.039,330.273 c 4.238,9.122 15.098,13.079 24.238,8.809 9.133,-4.238 13.106,-15.129 8.821,-24.227 -4.239,-9.171 -15.098,-13.125 -24.239,-8.847 -9.152,4.258 -13.105,15.105 -8.82,24.265"
         inkscape:connector-curvature="0"
         id="path60"
         style="fill:#266d9c;fill-opacity:1;fill-rule:nonzero;stroke:none"
         inkscape:export-filename="C:\Users\dieter\Documents\tao-logo\svg\patttern-only.png"
         inkscape:export-xdpi="300"
         inkscape:export-ydpi="300" /><path
         d="m 705.172,349.98 c 2.195,-6.062 -0.918,-12.781 -6.984,-15 -6.063,-2.175 -12.774,0.969 -14.961,7.032 -2.215,6.015 0.929,12.715 6.992,14.941 6.027,2.18 12.754,-0.957 14.953,-6.973"
         inkscape:connector-curvature="0"
         id="path62"
         style="fill:#266d9c;fill-opacity:1;fill-rule:nonzero;stroke:none"
         inkscape:export-filename="C:\Users\dieter\Documents\tao-logo\svg\patttern-only.png"
         inkscape:export-xdpi="300"
         inkscape:export-ydpi="300" /><path
         d="m 707.25,397.324 c -2.703,-5.84 -9.688,-8.379 -15.527,-5.672 -5.86,2.735 -8.387,9.676 -5.625,15.555 2.695,5.84 9.648,8.371 15.488,5.625 5.859,-2.715 8.379,-9.668 5.664,-15.508"
         inkscape:connector-curvature="0"
         id="path64"
         style="fill:#266d9c;fill-opacity:1;fill-rule:nonzero;stroke:none"
         inkscape:export-filename="C:\Users\dieter\Documents\tao-logo\svg\patttern-only.png"
         inkscape:export-xdpi="300"
         inkscape:export-ydpi="300" /><path
         d="m 742.184,429.328 c -6.067,-2.18 -12.793,0.914 -14.954,7 -2.234,6.055 0.879,12.754 6.973,14.953 6.055,2.227 12.746,-0.949 14.961,-6.984 2.207,-6.043 -0.926,-12.742 -6.98,-14.969"
         inkscape:connector-curvature="0"
         id="path66"
         style="fill:#266d9c;fill-opacity:1;fill-rule:nonzero;stroke:none"
         inkscape:export-filename="C:\Users\dieter\Documents\tao-logo\svg\patttern-only.png"
         inkscape:export-xdpi="300"
         inkscape:export-ydpi="300" /><path
         d="m 789.547,427.258 c -5.871,2.734 -8.41,9.676 -5.664,15.547 2.703,5.847 9.648,8.367 15.508,5.644 5.839,-2.746 8.347,-9.679 5.625,-15.547 -2.688,-5.832 -9.649,-8.351 -15.469,-5.644"
         inkscape:connector-curvature="0"
         id="path68"
         style="fill:#266d9c;fill-opacity:1;fill-rule:nonzero;stroke:none"
         inkscape:export-filename="C:\Users\dieter\Documents\tao-logo\svg\patttern-only.png"
         inkscape:export-xdpi="300"
         inkscape:export-ydpi="300" /><path
         d="m 821.539,392.336 c -2.187,6.062 0.926,12.762 6.973,14.949 6.074,2.219 12.773,-0.898 14.949,-6.961 2.207,-6.105 -0.867,-12.765 -6.941,-14.972 -6.106,-2.215 -12.766,0.898 -14.981,6.984"
         inkscape:connector-curvature="0"
         id="path70"
         style="fill:#266d9c;fill-opacity:1;fill-rule:nonzero;stroke:none"
         inkscape:export-filename="C:\Users\dieter\Documents\tao-logo\svg\patttern-only.png"
         inkscape:export-xdpi="300"
         inkscape:export-ydpi="300" /><path
         d="m 737.211,315.02 c 5.82,-2.715 8.332,-9.637 5.644,-15.516 -2.703,-5.844 -9.675,-8.371 -15.535,-5.637 -5.82,2.707 -8.371,9.68 -5.675,15.508 2.753,5.852 9.707,8.379 15.566,5.645"
         inkscape:connector-curvature="0"
         id="path72"
         style="fill:#266d9c;fill-opacity:1;fill-rule:nonzero;stroke:none"
         inkscape:export-filename="C:\Users\dieter\Documents\tao-logo\svg\patttern-only.png"
         inkscape:export-xdpi="300"
         inkscape:export-ydpi="300" /><path
         d="m 784.516,312.941 c 6.074,2.227 12.773,-0.879 14.972,-6.964 2.215,-6.067 -0.918,-12.743 -6.972,-14.93 -6.067,-2.238 -12.766,0.887 -14.961,6.933 -2.207,6.043 0.925,12.774 6.961,14.961"
         inkscape:connector-curvature="0"
         id="path74"
         style="fill:#266d9c;fill-opacity:1;fill-rule:nonzero;stroke:none"
         inkscape:export-filename="C:\Users\dieter\Documents\tao-logo\svg\patttern-only.png"
         inkscape:export-xdpi="300"
         inkscape:export-ydpi="300" /><path
         d="m 819.469,344.961 c 2.715,5.859 9.656,8.379 15.496,5.656 5.89,-2.707 8.371,-9.679 5.644,-15.488 -2.683,-5.859 -9.668,-8.399 -15.496,-5.656 -5.84,2.726 -8.379,9.629 -5.644,15.488"
         inkscape:connector-curvature="0"
         id="path76"
         style="fill:#266d9c;fill-opacity:1;fill-rule:nonzero;stroke:none"
         inkscape:export-filename="C:\Users\dieter\Documents\tao-logo\svg\patttern-only.png"
         inkscape:export-xdpi="300"
         inkscape:export-ydpi="300" /><path
         d="m 880.785,692.902 c -38.105,0 -66.953,-33.789 -66.953,-68.937 0,-37.442 29.191,-68.926 68.945,-68.926 36.778,0 68.293,31.145 68.293,67.922 0,38.445 -30.488,69.941 -70.285,69.941 z m 0.656,-176.308 c -57.011,0 -107.675,47.031 -107.675,106.367 0,57.019 46.035,108.387 105.703,108.387 66.269,0 111.355,-47.403 111.355,-108.047 0,-57 -46.394,-106.707 -109.383,-106.707"
         inkscape:connector-curvature="0"
         id="path78"
         style="fill:#266d9c;fill-opacity:1;fill-rule:nonzero;stroke:none"
         inkscape:export-filename="C:\Users\dieter\Documents\tao-logo\svg\patttern-only.png"
         inkscape:export-xdpi="300"
         inkscape:export-ydpi="300" /><path
         d="m 856.918,176.27 c -38.152,0 -66.98,-33.79 -66.98,-68.907 0,-37.4607 29.167,-68.9138 68.964,-68.9138 36.778,0 68.262,31.1133 68.262,67.9178 0,38.449 -30.508,69.903 -70.246,69.903 z M 857.555,0 c -57.012,0 -107.707,47.0508 -107.707,106.367 0,56.985 46.066,108.391 105.742,108.391 66.262,0 111.34,-47.422 111.34,-108.078 C 966.93,49.6875 920.543,0 857.555,0"
         inkscape:connector-curvature="0"
         id="path80"
         style="fill:#266d9c;fill-opacity:1;fill-rule:nonzero;stroke:none"
         inkscape:export-filename="C:\Users\dieter\Documents\tao-logo\svg\patttern-only.png"
         inkscape:export-xdpi="300"
         inkscape:export-ydpi="300" /><path
         d="m 1134.04,522.766 0,-12.825 6,0 c 6.45,0 9.48,1.614 9.48,6.153 0,4.785 -3.03,6.672 -9.67,6.672 l -5.81,0 z m 22.8,-5.879 c 0,-5.539 -3.16,-9.328 -8.58,-10.489 l 8.38,-17.687 -7.94,0 -7.63,16.574 -7.03,0 0,-16.574 -7.11,0 0,38.848 14.2,0 c 10.53,0 15.71,-3.672 15.71,-10.672 z m 4.01,11.504 c -5.51,5.82 -12.59,8.847 -20.55,8.847 -7.75,0 -14.85,-2.961 -20.09,-8.476 -5.64,-5.899 -8.78,-13.489 -8.78,-21.321 0,-7.781 3.05,-15.097 8.51,-20.808 5.44,-5.695 12.7,-8.867 20.1,-8.867 7.83,0 14.92,3.035 20.65,8.769 5.44,5.418 8.39,12.735 8.39,20.645 0,8.269 -2.86,15.683 -8.23,21.211 z m 3.07,3.144 c 6.09,-6.398 9.57,-14.941 9.57,-24.094 0,-9.414 -3.39,-17.761 -9.69,-24.062 -6.52,-6.543 -14.91,-10.156 -23.6,-10.156 -8.82,0 -17.04,3.613 -23.42,10.273 -6.27,6.524 -9.68,14.934 -9.68,23.945 0,9.036 3.62,17.813 10.06,24.551 6.1,6.375 14.09,9.719 23.04,9.719 9.06,0 17.35,-3.535 23.72,-10.176"
         inkscape:connector-curvature="0"
         id="path82"
         style="fill:#266d9c;fill-opacity:1;fill-rule:nonzero;stroke:none"
         inkscape:export-filename="C:\Users\dieter\Documents\tao-logo\svg\patttern-only.png"
         inkscape:export-xdpi="300"
         inkscape:export-ydpi="300" /><path
         d="m 565.797,273.887 0,0.781 c 0,36.348 -27.735,66.457 -67.07,66.457 -40.176,0 -65.84,-29.727 -65.84,-65.684 l 0,-0.773 c 0,-35.977 27.711,-66.434 66.648,-66.434 40.598,0 66.262,30.086 66.262,65.653 z m -174.172,0 0,0.781 c 0,59.035 45.93,107.902 107.902,107.902 61.973,0 107.52,-48.097 107.52,-107.129 l 0,-0.773 c 0,-58.621 -45.93,-107.5 -108.274,-107.5 -61.625,0 -107.148,48.098 -107.148,106.719"
         inkscape:connector-curvature="0"
         id="path84"
         style="fill:#266d9c;fill-opacity:1;fill-rule:nonzero;stroke:none"
         inkscape:export-filename="C:\Users\dieter\Documents\tao-logo\svg\text-only.png"
         inkscape:export-xdpi="300"
         inkscape:export-ydpi="300" /><path
         d="m 306.762,258.262 c -12.098,4.699 -28.907,8.203 -47.289,8.203 -29.703,0 -47.278,-12.156 -47.278,-32.02 l 0,-0.8 c 0,-19.563 17.575,-30.5 39.867,-30.5 31.278,0 54.7,17.578 54.7,43.378 l 0,11.739 z m 2.48,-86.367 0,25.382 C 295.16,180.469 273.656,167.57 242.398,167.57 c -39.093,0 -73.472,22.274 -73.472,63.731 l 0,0.777 c 0,45.734 35.57,67.602 83.625,67.602 25.023,0 41.058,-3.52 57.054,-8.586 l 0,3.886 c 0,28.528 -17.972,44.141 -50.789,44.141 -23.05,0 -40.254,-5.008 -59.007,-12.871 l -12.918,37.922 c 22.683,10.156 44.961,17.176 78.57,17.176 60.961,0 90.695,-32.02 90.695,-87.137 l 0,-122.316 -46.914,0"
         inkscape:connector-curvature="0"
         id="path86"
         style="fill:#266d9c;fill-opacity:1;fill-rule:nonzero;stroke:none"
         inkscape:export-filename="C:\Users\dieter\Documents\tao-logo\svg\text-only.png"
         inkscape:export-xdpi="300"
         inkscape:export-ydpi="300" /><path
         d="m 26.1914,228.926 0,108.652 -26.1914,0 0,40.664 26.1914,0 0,56.668 47.3164,0 0,-56.668 55.4842,0 0,-40.664 -55.4842,0 0,-101.219 c 0,-18.359 9.3672,-25.781 25.375,-25.781 10.5702,0 19.9492,2.363 29.3052,7.012 l 0,-38.672 c -11.696,-6.652 -24.981,-10.559 -42.6021,-10.559 -34.7656,0 -59.3945,15.286 -59.3945,60.567"
         inkscape:connector-curvature="0"
         id="path88"
         style="fill:#266d9c;fill-opacity:1;fill-rule:nonzero;stroke:none"
         inkscape:export-filename="C:\Users\dieter\Documents\tao-logo\svg\text-only.png"
         inkscape:export-xdpi="300"
         inkscape:export-ydpi="300" /></g></g></svg>